<svg xmlns="http://www.w3.org/2000/svg" xmlns:xlink="http://www.w3.org/1999/xlink" width="500" zoomAndPan="magnify" viewBox="0 0 375 374.999991" height="500" preserveAspectRatio="xMidYMid meet" version="1.2"><defs><clipPath id="74b38df68e"><path d="M 0 0.382812 L 375 0.382812 L 375 375 L 0 375 Z M 0 0.382812 "/></clipPath><clipPath id="3068f20396"><path d="M 88 41.023438 L 176 41.023438 L 176 130 L 88 130 Z M 88 41.023438 "/></clipPath></defs><g id="9966ef97fd"><g clip-rule="nonzero" clip-path="url(#74b38df68e)"><path style=" stroke:none;fill-rule:nonzero;fill:#fdf9f4;fill-opacity:1;" d="M 374.617188 187.691406 C 374.617188 291.136719 290.753906 375 187.308594 375 C 83.863281 375 0 291.136719 0 187.691406 C 0 84.246094 83.863281 0.382812 187.308594 0.382812 C 290.753906 0.382812 374.617188 84.246094 374.617188 187.691406 Z M 374.617188 187.691406 "/></g><path style=" stroke:none;fill-rule:nonzero;fill:#734933;fill-opacity:1;" d="M 291.414062 195.238281 C 291.414062 185.355469 237.492188 177.351562 173.269531 177.351562 C 109.050781 177.351562 57 185.355469 57 195.238281 C 57 301.234375 149.804688 325.898438 149.804688 325.898438 C 149.804688 325.898438 176.039062 333.921875 205.011719 325.113281 C 205.011719 325.113281 291.417969 303.191406 291.417969 195.238281 Z M 129.265625 301.929688 C 77.402344 263.355469 79.425781 218.917969 79.425781 218.917969 L 89.554688 222.296875 C 89.15625 269.050781 122.699219 296.925781 129.261719 301.929688 C 129.628906 302.199219 130 302.476562 130.367188 302.75 C 130.367188 302.75 129.96875 302.472656 129.261719 301.929688 Z M 173.207031 213.316406 C 124.417969 213.316406 84.863281 205.867188 84.863281 203.164062 C 84.863281 199.601562 124.417969 193.011719 173.207031 193.011719 C 221.996094 193.011719 262.964844 199.128906 262.964844 203.164062 C 262.964844 205.324219 221.996094 213.316406 173.207031 213.316406 Z M 173.207031 213.316406 "/><path style=" stroke:none;fill-rule:nonzero;fill:#734933;fill-opacity:1;" d="M 333.03125 211.964844 C 323.023438 201.957031 294.269531 206.339844 294.269531 206.339844 C 293.441406 219.355469 291.140625 230.125 291.140625 230.125 C 291.140625 230.125 308.832031 213.425781 319.96875 223.714844 C 333.476562 236.191406 316.542969 262.472656 295.746094 272.164062 C 278.515625 280.191406 272.695312 277.300781 272.695312 277.300781 C 272.695312 277.300781 268.503906 283.75 263.640625 289.339844 C 259.378906 294.234375 253.460938 300.351562 253.460938 300.351562 C 253.460938 300.351562 282.207031 297.132812 303.816406 285.375 C 322.707031 275.097656 355.910156 234.84375 333.03125 211.964844 Z M 333.03125 211.964844 "/><path style=" stroke:none;fill-rule:nonzero;fill:#734933;fill-opacity:1;" d="M 138.058594 134.9375 C 145.671875 134.9375 153.175781 132.003906 154.425781 125.605469 C 154.425781 125.464844 154.425781 125.132812 154.40625 125 C 124.695312 104.253906 113.136719 56.390625 91.664062 56.390625 C 84.425781 56.390625 78.890625 63.039062 78.890625 72.097656 C 78.890625 92.128906 104.105469 134.9375 138.058594 134.9375 Z M 138.058594 134.9375 "/><path style=" stroke:none;fill-rule:nonzero;fill:#734933;fill-opacity:1;" d="M 157.164062 129.171875 C 157.0625 129.199219 156.953125 129.230469 156.847656 129.257812 Z M 157.164062 129.171875 "/><g clip-rule="nonzero" clip-path="url(#3068f20396)"><path style=" stroke:none;fill-rule:nonzero;fill:#734933;fill-opacity:1;" d="M 139.722656 91.773438 C 150.640625 106.390625 158.46875 117.324219 158.46875 120.886719 C 158.46875 122.90625 158.738281 127.636719 157.171875 129.171875 C 167.703125 126.210938 174.332031 113.164062 175.207031 104.003906 C 178.511719 69.285156 144.691406 41.023438 112.363281 41.023438 C 103.136719 41.023438 92.835938 44.078125 88.726562 52.621094 C 90.949219 52.375 93.476562 52.148438 96 52.148438 C 115.34375 52.132812 126.359375 73.890625 139.71875 91.773438 Z M 139.722656 91.773438 "/></g><path style=" stroke:none;fill-rule:nonzero;fill:#734933;fill-opacity:1;" d="M 203.148438 155.441406 C 203.125 155.574219 203.128906 155.90625 203.125 156.046875 C 204.371094 162.4375 211.882812 165.378906 219.496094 165.378906 C 253.449219 165.378906 278.660156 122.570312 278.660156 102.539062 C 278.660156 93.480469 273.132812 86.832031 265.886719 86.832031 C 244.414062 86.832031 232.851562 134.695312 203.148438 155.445312 Z M 203.148438 155.441406 "/><path style=" stroke:none;fill-rule:nonzero;fill:#734933;fill-opacity:1;" d="M 200.382812 159.613281 C 198.8125 158.085938 199.085938 153.347656 199.085938 151.335938 C 199.085938 147.773438 206.914062 136.832031 217.828125 122.21875 C 231.1875 104.332031 242.203125 82.578125 261.546875 82.597656 C 264.070312 82.597656 266.597656 82.820312 268.820312 83.070312 C 264.710938 74.527344 254.410156 71.46875 245.183594 71.46875 C 212.847656 71.46875 179.035156 99.734375 182.34375 134.453125 C 183.214844 143.613281 189.84375 156.652344 200.382812 159.621094 Z M 200.382812 159.613281 "/><path style=" stroke:none;fill-rule:nonzero;fill:#734933;fill-opacity:1;" d="M 200.699219 159.699219 C 200.59375 159.671875 200.484375 159.640625 200.382812 159.613281 Z M 200.699219 159.699219 "/></g></svg>