<svg xmlns="http://www.w3.org/2000/svg" width="px" height="px" viewBox="0 0 125 125"><defs><clipPath id="a"><path d="M0 .129h125V125H0Zm0 0"/></clipPath><clipPath id="b"><path d="M29.332 13.676h29.336v29.656H29.332Zm0 0"/></clipPath></defs><g clip-path="url(#a)"><path d="M124.871 62.563c0 34.484-27.953 62.437-62.433 62.437C27.953 125 0 97.047 0 62.563 0 28.082 27.953.129 62.438.129c34.48 0 62.433 27.953 62.433 62.434m0 0" style="stroke:none;fill-rule:nonzero;fill:#fdf9f4;fill-opacity:1"/></g><path d="M97.137 65.078c0-3.293-17.973-5.96-39.38-5.96-21.405 0-38.757 2.667-38.757 5.96 0 35.332 30.934 43.555 30.934 43.555s8.746 2.676 18.402-.262c0 0 28.805-7.308 28.805-43.293ZM43.09 100.645C25.8 87.785 26.477 72.973 26.477 72.973l3.375 1.125c-.133 15.586 11.046 24.879 13.234 26.547.125.09.246.18.371.273 0 0-.133-.094-.371-.273Zm14.644-29.54c-16.261 0-29.445-2.484-29.445-3.382 0-1.188 13.184-3.387 29.445-3.387 16.266 0 29.922 2.039 29.922 3.387 0 .718-13.656 3.382-29.922 3.382m0 0" style="stroke:none;fill-rule:nonzero;fill:#734933;fill-opacity:1"/><path d="M111.012 70.656c-3.336-3.336-12.922-1.875-12.922-1.875a61 61 0 0 1-1.043 7.926s5.898-5.566 9.61-2.137c4.503 4.16-1.141 12.922-8.075 16.153-5.742 2.675-7.684 1.71-7.684 1.71s-1.398 2.149-3.02 4.012c-1.417 1.633-3.39 3.672-3.39 3.672s9.582-1.074 16.785-4.992c6.297-3.426 17.364-16.844 9.739-24.469M46.02 44.98c2.539 0 5.039-.98 5.457-3.113 0-.047 0-.156-.008-.199-9.903-6.918-13.758-22.871-20.914-22.871-2.414 0-4.258 2.215-4.258 5.234 0 6.68 8.406 20.95 19.723 20.95m6.367-1.922-.106.027Zm0 0" style="stroke:none;fill-rule:nonzero;fill:#734933;fill-opacity:1"/><g clip-path="url(#b)"><path d="M46.574 30.59c3.64 4.875 6.25 8.52 6.25 9.707 0 .672.09 2.25-.433 2.762 3.511-.989 5.718-5.336 6.011-8.391 1.102-11.574-10.172-20.992-20.949-20.992-3.074 0-6.508 1.015-7.879 3.863A22 22 0 0 1 32 17.383c6.45-.004 10.121 7.246 14.574 13.207m0 0" style="stroke:none;fill-rule:nonzero;fill:#734933;fill-opacity:1"/></g><path d="M67.715 51.813c-.008.046-.004.156-.008.203.418 2.129 2.922 3.109 5.457 3.109 11.32 0 19.723-14.27 19.723-20.945 0-3.02-1.844-5.235-4.258-5.235-7.156 0-11.012 15.953-20.914 22.871Zm0 0" style="stroke:none;fill-rule:nonzero;fill:#734933;fill-opacity:1"/><path d="M66.793 53.203c-.523-.508-.43-2.086-.43-2.758 0-1.187 2.61-4.836 6.246-9.707 4.454-5.96 8.125-13.21 14.575-13.207.84 0 1.683.074 2.421.16-1.367-2.847-4.8-3.867-7.878-3.867-10.778 0-22.047 9.422-20.946 20.992.29 3.055 2.5 7.403 6.012 8.391ZM66.898 53.234l-.105-.03Zm0 0" style="stroke:none;fill-rule:nonzero;fill:#734933;fill-opacity:1"/></svg>