<svg xmlns="http://www.w3.org/2000/svg" width="px" height="px" viewBox="0 0 126 63"><defs><clipPath id="a"><path d="M3.77 29.902h33.19v21.84H3.77Zm0 0"/></clipPath><clipPath id="b"><path d="M8.063 10.742h12.769v12.442H8.062Zm0 0"/></clipPath></defs><g clip-path="url(#a)"><path d="M36.867 32.5c0-1.395-7.61-2.523-16.672-2.523S3.79 31.105 3.79 32.5c0 14.957 13.094 18.438 13.094 18.438s3.703 1.132 7.789-.11c0 0 12.195-3.094 12.195-18.328M13.984 47.555c-7.316-5.442-7.03-11.711-7.03-11.711l1.429.476c-.055 6.598 4.676 10.532 5.601 11.235q.081.059.157.117zm6.204-12.504c-6.887 0-12.47-1.051-12.47-1.43 0-.504 5.583-1.434 12.47-1.434 6.882 0 12.664.864 12.664 1.434 0 .305-5.782 1.43-12.664 1.43m0 0" style="stroke:none;fill-rule:nonzero;fill:#734933;fill-opacity:1"/></g><path d="M42.738 34.863c-1.41-1.414-5.468-.797-5.468-.797-.118 1.84-.442 3.356-.442 3.356s2.496-2.356 4.067-.902c1.906 1.761-.48 5.468-3.418 6.835-2.43 1.133-3.25.727-3.25.727s-.594.91-1.278 1.7c-.601.687-1.437 1.55-1.437 1.55s4.054-.453 7.105-2.113c2.664-1.45 7.352-7.13 4.121-10.356m-27.511-10.87c1.074 0 2.132-.415 2.308-1.317v-.086c-4.195-2.926-5.824-9.68-8.855-9.68-1.02 0-1.801.938-1.801 2.215 0 2.828 3.559 8.867 8.348 8.867m2.695-.812-.043.011Zm0 0" style="stroke:none;fill-rule:nonzero;fill:#734933;fill-opacity:1"/><g clip-path="url(#b)"><path d="M15.46 17.902c1.544 2.063 2.645 3.606 2.645 4.106 0 .285.04.953-.183 1.172 1.488-.418 2.422-2.258 2.547-3.551.465-4.899-4.305-8.89-8.867-8.89-1.301 0-2.758.433-3.336 1.636a9 9 0 0 1 1.027-.066c2.73 0 4.285 3.07 6.168 5.593m0 0" style="stroke:none;fill-rule:nonzero;fill:#734933;fill-opacity:1"/></g><path d="M24.41 26.887v.086c.176.898 1.235 1.316 2.309 1.316 4.789 0 8.347-6.043 8.347-8.867 0-1.277-.78-2.219-1.8-2.219-3.032 0-4.664 6.754-8.856 9.684m0 0" style="stroke:none;fill-rule:nonzero;fill:#734933;fill-opacity:1"/><path d="M24.02 27.477c-.22-.22-.184-.887-.184-1.172 0-.5 1.105-2.043 2.648-4.106 1.883-2.523 3.438-5.594 6.168-5.594.356 0 .711.036 1.028.067-.582-1.203-2.035-1.637-3.336-1.637-4.563 0-9.336 3.988-8.867 8.89.12 1.29 1.058 3.13 2.543 3.552m.046.011-.046-.011ZM46.723 21.367q-.001-2.155.625-3.87c.414-1.142.984-2.106 1.71-2.9a7.5 7.5 0 0 1 2.497-1.816 7.3 7.3 0 0 1 2.988-.629q.64 0 1.094.047.456.047.86.106.409.054.87.101.463.047 1.09.047.233 0 .508-.07a.74.74 0 0 0 .398-.23h.157v5.679h-.157a8 8 0 0 0-.304-1.363 9 9 0 0 0-.586-1.434 6.6 6.6 0 0 0-.852-1.285 4 4 0 0 0-1.11-.918 2.64 2.64 0 0 0-1.327-.348q-.91.001-1.532.746-.626.741-1.02 2.008-.385 1.266-.573 2.86a30 30 0 0 0-.176 3.285q-.001 1.348.11 2.644c.073.868.19 1.676.35 2.434q.246 1.131.637 1.992.393.86.938 1.352.544.48 1.266.48c.398 0 .77-.12 1.113-.37.344-.255.656-.587.945-1.005q.445-.651.774-1.375.339-.739.613-1.508.246-.687.445-1.39.177-.638.29-1.012h.156v5.676l-.282.199q-.287.193-.879.445-.592.247-1.543.442-.943.2-2.273.199a7.2 7.2 0 0 1-2.984-.625 7.6 7.6 0 0 1-2.5-1.816q-1.09-1.19-1.711-2.903-.626-1.711-.625-3.875M60.379 13.496c.426 0 .906-.043 1.441-.137a19 19 0 0 0 1.625-.351c.5-.13.992-.278 1.485-.442q.673-.221 1.035-.414h.152v15.946q0 .86.235 1.375.236.515.78.656v.156H60.41v-.156q.544-.141.778-.656t.234-1.375V15.723q0-.732-.18-1.188c-.117-.305-.258-.523-.418-.664q-.24-.215-.445-.215ZM67.445 18.898q.597 0 1.352-.128a23 23 0 0 0 2.953-.747q.55-.18 1.094-.378a.7.7 0 0 0 .187-.094h.153v10.547q.002.86.238 1.375.235.515.781.656v.156H67.48v-.156a1.11 1.11 0 0 0 .774-.656q.239-.515.238-1.375V21.12q-.001-.738-.18-1.187-.179-.458-.417-.668-.246-.213-.45-.215Zm.5-4.476c0-.531.13-1.016.39-1.445.255-.43.618-.786 1.048-1.04a2.76 2.76 0 0 1 1.441-.394q.797.001 1.453.395c.434.25.793.609 1.051 1.039q.394.647.395 1.445-.001.795-.395 1.457a3 3 0 0 1-1.05 1.05q-.657.39-1.454.391a2.8 2.8 0 0 1-1.441-.39 3 3 0 0 1-1.047-1.051 2.8 2.8 0 0 1-.39-1.457M74.984 24.074q0-1.34.45-2.523a6.4 6.4 0 0 1 1.289-2.078 6 6 0 0 1 1.96-1.414q1.137-.509 2.497-.508c.629 0 1.257.082 1.867.246q.919.241 1.656.734c.477.313.875.735 1.164 1.23q.429.733.43 1.7 0 .925-.414 1.605c-.27.446-.664.809-1.13 1.04q-.707.358-1.616.359-.909 0-1.559-.36a2.48 2.48 0 0 1-.992-.992 2.9 2.9 0 0 1-.348-1.414q.001-.562.125-.96.13-.4.301-.723c.117-.211.211-.418.293-.625q.129-.306.129-.664.001-.344-.145-.59-.135-.241-.48-.242a.85.85 0 0 0-.668.316 2.4 2.4 0 0 0-.445.797q-.171.484-.258 1.015a6.4 6.4 0 0 0-.086.985c0 1.305.238 2.41.71 3.324q.713 1.372 1.962 2.086c.84.473 1.793.707 2.867.707.355 0 .691-.031 1.016-.098q.499-.11.968-.304a2.9 2.9 0 0 1-.414 1.515 4.2 4.2 0 0 1-1.129 1.235 5.4 5.4 0 0 1-1.605.82 6.1 6.1 0 0 1-1.871.293c-.906 0-1.75-.172-2.54-.512a6.57 6.57 0 0 1-3.476-3.472 6.3 6.3 0 0 1-.508-2.528M88.355 15.723q-.001-.732-.18-1.188c-.116-.305-.257-.523-.417-.664q-.247-.215-.445-.215v-.16c.425 0 .906-.043 1.44-.137a19 19 0 0 0 1.622-.351q.75-.196 1.488-.442.67-.221 1.035-.414h.149V24.06l2.617-2.782c.426-.46.688-.925.785-1.386q.154-.697-.238-1.22-.393-.52-1.395-.679v-.16h6.7v.16q-.503.001-1.282.266a9 9 0 0 0-1.593.742 8.4 8.4 0 0 0-1.774 1.375 21 21 0 0 1-.297.305q.252.638.61 1.558c.257.649.52 1.297.78 1.942q.423 1.009.833 2.023c.394.95.73 1.711 1.012 2.293q.426.868.793 1.25.37.382.761.383v.156h-6.898v-.156c.238-.125.402-.266.5-.414q.142-.224.078-.63-.064-.41-.316-1.097c-.153-.43-.383-.933-.688-1.52q-.452-.873-.875-2.14a1 1 0 0 0-.047-.14l-.066-.13v4.04q.002.86.238 1.375.235.515.781.656v.156h-6.722v-.156a1.11 1.11 0 0 0 .773-.656q.239-.515.238-1.375ZM113.492 30.586q-1.22 0-2.328-.438a6.2 6.2 0 0 1-1.969-1.238 5.9 5.9 0 0 1-1.367-1.898q-.499-1.102-.5-2.438 0-.996.336-1.957a4.6 4.6 0 0 1 1.008-1.676q.676-.714 1.707-.949a13 13 0 0 1-.93-1.86q-.351-.889-.351-1.69-.001-1.238.625-2.204.628-.971 1.742-1.527 1.12-.558 2.59-.559c.73 0 1.398.11 2.004.32q.907.324 1.457.973.543.65.546 1.633c0 .574-.18 1.05-.527 1.426q-.521.562-1.476.562c-.344 0-.653-.097-.918-.293a2.04 2.04 0 0 1-.61-.765 2.3 2.3 0 0 1-.191-.988q.028-.767.555-1.282.522-.52 1.34-.52-.177-.297-.622-.515-.444-.217-1.07-.219-.346-.001-.758.145a1.7 1.7 0 0 0-.691.488q-.289.34-.29.914c0 .45.157.965.462 1.543q.462.868 1.218 1.871.81 1.06 1.672 2.078l1.742 2.04a170 170 0 0 0 1.774 2.03q.813.91 1.613 1.825a.9.9 0 0 0 .125-.465q-.001-.924-.414-1.832a7.2 7.2 0 0 0-1.101-1.707q-.687-.792-1.532-1.414a7.4 7.4 0 0 0-1.68-.95v-.152h2.68q.545.002 1.012.415c.316.277.59.644.832 1.097.246.469.434.965.559 1.477q.206.798.207 1.562c0 .406-.04.801-.11 1.176q-.106.567-.312 1.094a197 197 0 0 0 1.52 1.707l-3.54 3.16c-.156-.2-.328-.406-.527-.625a21 21 0 0 0-.629-.691c-.734.421-1.52.75-2.336.976a9.6 9.6 0 0 1-2.547.34m-2.937-10.313q-.413.064-.38.563c.02.332.153.762.4 1.281.245.524.573 1.09.987 1.707.43.64.903 1.254 1.418 1.832.52.594 1.079 1.153 1.68 1.668a9 9 0 0 0 1.774 1.219q.891.462 1.707.46a203 203 0 0 0-1.864-1.96 121 121 0 0 1-2.054-2.191 62 62 0 0 1-1.996-2.293 23 23 0 0 1-1.672-2.286M46.723 41.254q-.001-2.16.625-3.871.621-1.71 1.71-2.899a7.5 7.5 0 0 1 2.497-1.816 7.3 7.3 0 0 1 2.988-.629q.64 0 1.094.047.456.047.86.105.409.053.87.098.463.047 1.09.047.233.002.508-.066a.74.74 0 0 0 .398-.23h.157v5.679h-.157a8.83 8.83 0 0 0-.89-2.797 6.8 6.8 0 0 0-.852-1.29 4.1 4.1 0 0 0-1.11-.917 2.63 2.63 0 0 0-1.327-.344q-.91-.001-1.532.742-.626.742-1.02 2.012-.385 1.267-.573 2.855a30 30 0 0 0-.176 3.29q-.001 1.348.11 2.644c.073.863.19 1.676.35 2.43q.246 1.136.637 1.996.393.861.938 1.347a1.84 1.84 0 0 0 1.266.485c.398 0 .77-.121 1.113-.371.344-.254.656-.586.945-1.004.297-.434.555-.895.774-1.375q.339-.739.613-1.508.246-.687.445-1.39.177-.641.29-1.012h.156v5.672s-.094.07-.282.199q-.287.198-.879.449-.592.247-1.543.441c-.629.13-1.386.2-2.273.2-1.055 0-2.05-.211-2.984-.625a7.6 7.6 0 0 1-2.5-1.817c-.727-.797-1.297-1.761-1.711-2.906q-.626-1.71-.625-3.871M67.117 50.473a6.8 6.8 0 0 1-2.43-.438 6 6 0 0 1-2.003-1.273 5.9 5.9 0 0 1-1.356-2.055q-.485-1.212-.484-2.746c0-1.02.164-1.938.496-2.746a6 6 0 0 1 1.36-2.059 5.9 5.9 0 0 1 2.003-1.281 6.7 6.7 0 0 1 2.43-.437q1.296-.001 2.433.437a5.9 5.9 0 0 1 2.004 1.281 5.9 5.9 0 0 1 1.348 2.059c.328.808.488 1.726.488 2.746q0 1.533-.492 2.746a5.9 5.9 0 0 1-1.36 2.055 5.9 5.9 0 0 1-2 1.273q-1.136.436-2.437.438m-1.183-6.528q-.001 1.285.004 2.41.011 1.125.093 1.98.081.85.344 1.33c.172.315.422.476.742.476q.503 0 .754-.477.247-.48.336-1.328.088-.855.094-1.98c.011-1.602.011-3.208 0-4.81a20 20 0 0 0-.094-1.964q-.09-.844-.336-1.32-.251-.48-.754-.48-.482 0-.742.48-.264.476-.344 1.32a23 23 0 0 0-.094 1.965q-.004 1.12-.003 2.398M73.715 37.719h1.398v-1.594q0-1.2.414-2.004a3.4 3.4 0 0 1 1.059-1.246c.422-.3.89-.52 1.387-.648a5.6 5.6 0 0 1 1.359-.188q1.02.001 1.695.383.683.382 1.028.98.344.597.343 1.235.001 1.053-.578 1.672c-.382.406-.898.613-1.547.613q-.941 0-1.515-.574a1.87 1.87 0 0 1-.578-1.403q0-.37.082-.582.082-.21.164-.36a.7.7 0 0 0 .078-.32q0-.284-.27-.437-.258-.157-.64-.156-.404.002-.848.191-.446.2-.746.621c-.2.282-.293.645-.293 1.094-.004.41.082.73.246.965.168.234.39.422.649.547q.398.192.867.344c.316.101.62.21.926.336q.457.186.796.53h2.27v.317h-2.016q.171.263.266.625.093.356.094.86v8.464q.001.862.23 1.375c.16.344.418.563.785.657v.156h-6.726v-.156a1.13 1.13 0 0 0 .781-.657q.239-.513.238-1.375v-9.949h-1.398Zm0 0" style="stroke:none;fill-rule:nonzero;fill:#734933;fill-opacity:1"/><path d="M80.598 37.719h1.394v-1.594q0-1.2.418-2.004a3.4 3.4 0 0 1 1.059-1.246c.418-.3.89-.52 1.386-.648a5.5 5.5 0 0 1 1.36-.188q1.02.001 1.695.383.681.382 1.024.98.346.597.347 1.235.001 1.053-.578 1.672c-.387.406-.902.613-1.547.613q-.942 0-1.52-.574a1.89 1.89 0 0 1-.577-1.403q-.001-.37.086-.582.081-.21.164-.36a.7.7 0 0 0 .078-.32q0-.284-.27-.437a1.2 1.2 0 0 0-.64-.156q-.407.002-.848.191-.449.2-.746.621-.299.422-.297 1.094-.001.614.25.965c.164.234.39.422.648.547q.399.192.868.344c.316.101.62.21.921.336q.456.186.801.53h2.266v.317h-2.016q.175.263.27.625.093.356.094.86v8.464c0 .575.074 1.032.23 1.375q.235.516.781.657v.156h-6.722v-.156a1.13 1.13 0 0 0 .78-.657q.235-.513.235-1.375v-9.949h-1.394Zm0 0" style="stroke:none;fill-rule:nonzero;fill:#734933;fill-opacity:1"/><path d="M94.945 50.473a6.3 6.3 0 0 1-2.539-.512 6.5 6.5 0 0 1-2.074-1.398 6.6 6.6 0 0 1-1.402-2.075 6.3 6.3 0 0 1-.512-2.527q0-1.344.453-2.523c.305-.79.73-1.481 1.285-2.075a6 6 0 0 1 1.965-1.402q1.132-.509 2.492-.508c1.192 0 2.196.184 3.02.55q1.236.545 1.887 1.466a3.4 3.4 0 0 1 .648 2.02q.001 1.55-1.27 2.347-1.264.797-4.093.797h-1.407a4.87 4.87 0 0 0 1.915 1.77c.789.406 1.675.609 2.667.609q.53 0 1.012-.098.498-.111.973-.305c0 .532-.14 1.059-.414 1.516a4.2 4.2 0 0 1-1.13 1.234 5.4 5.4 0 0 1-1.609.817c-.601.199-1.234.297-1.867.297m-1.722-6.137h.093q.78-.001 1.313-.313a2.5 2.5 0 0 0 .863-.832 3.6 3.6 0 0 0 .465-1.152q.143-.628.145-1.238-.001-.497-.102-1.024a3.8 3.8 0 0 0-.32-.972 2.2 2.2 0 0 0-.559-.723 1.18 1.18 0 0 0-.785-.285c-.356 0-.66.105-.902.305a2.2 2.2 0 0 0-.59.793q-.216.486-.309 1.007a5.5 5.5 0 0 0-.094.977q0 1.036.204 1.902a6.3 6.3 0 0 0 .578 1.555M107.473 50.473a6.3 6.3 0 0 1-2.54-.512 6.5 6.5 0 0 1-2.074-1.398 6.6 6.6 0 0 1-1.402-2.075 6.3 6.3 0 0 1-.508-2.527q0-1.344.45-2.523.456-1.184 1.288-2.075a6 6 0 0 1 1.961-1.402c.758-.34 1.586-.508 2.497-.508 1.187 0 2.195.184 3.015.55q1.242.545 1.887 1.466.65.913.652 2.02-.004 1.55-1.273 2.347-1.265.797-4.094.797h-1.406a4.9 4.9 0 0 0 1.914 1.77q1.185.609 2.668.609c.351 0 .691-.032 1.012-.098q.503-.111.972-.305a2.9 2.9 0 0 1-.414 1.516 4.2 4.2 0 0 1-1.129 1.234 5.5 5.5 0 0 1-1.605.817 6 6 0 0 1-1.871.297m-1.723-6.137h.098q.78-.001 1.308-.313a2.5 2.5 0 0 0 .864-.832c.222-.355.378-.742.464-1.152q.146-.628.145-1.238 0-.497-.102-1.024a3.8 3.8 0 0 0-.32-.972 2.2 2.2 0 0 0-.555-.723c-.218-.187-.5-.289-.789-.285-.355 0-.656.105-.902.305a2.2 2.2 0 0 0-.59.793q-.215.486-.308 1.007a5.5 5.5 0 0 0-.094.977q.002 1.036.203 1.902a6.3 6.3 0 0 0 .578 1.555m0 0" style="stroke:none;fill-rule:nonzero;fill:#734933;fill-opacity:1"/></svg>