<svg xmlns="http://www.w3.org/2000/svg" xmlns:xlink="http://www.w3.org/1999/xlink" width="500" zoomAndPan="magnify" viewBox="0 0 375 187.499995" height="250" preserveAspectRatio="xMidYMid meet" version="1.2"><defs><clipPath id="f7edf32c3c"><path d="M 11.214844 89 L 110 89 L 110 154 L 11.214844 154 Z M 11.214844 89 "/></clipPath><clipPath id="98cdf7b35f"><path d="M 24 31.964844 L 62 31.964844 L 62 69 L 24 69 Z M 24 31.964844 "/></clipPath></defs><g id="340d7c781a"><g clip-rule="nonzero" clip-path="url(#f7edf32c3c)"><path style=" stroke:none;fill-rule:nonzero;fill:#734933;fill-opacity:1;" d="M 109.722656 96.730469 C 109.722656 92.578125 87.078125 89.21875 60.105469 89.21875 C 33.136719 89.21875 11.277344 92.578125 11.277344 96.730469 C 11.277344 141.242188 50.25 151.601562 50.25 151.601562 C 50.25 151.601562 61.269531 154.972656 73.433594 151.273438 C 73.433594 151.273438 109.722656 142.066406 109.722656 96.730469 Z M 41.625 141.535156 C 19.84375 125.335938 20.695312 106.675781 20.695312 106.675781 L 24.949219 108.09375 C 24.78125 127.726562 38.867188 139.433594 41.625 141.535156 C 41.777344 141.648438 41.933594 141.765625 42.089844 141.878906 C 42.089844 141.878906 41.921875 141.761719 41.625 141.535156 Z M 60.078125 104.320312 C 39.589844 104.320312 22.976562 101.191406 22.976562 100.058594 C 22.976562 98.5625 39.589844 95.792969 60.078125 95.792969 C 80.570312 95.792969 97.773438 98.363281 97.773438 100.058594 C 97.773438 100.964844 80.570312 104.320312 60.078125 104.320312 Z M 60.078125 104.320312 "/></g><path style=" stroke:none;fill-rule:nonzero;fill:#734933;fill-opacity:1;" d="M 127.199219 103.753906 C 122.996094 99.550781 110.921875 101.390625 110.921875 101.390625 C 110.574219 106.859375 109.605469 111.378906 109.605469 111.378906 C 109.605469 111.378906 117.035156 104.367188 121.714844 108.6875 C 127.386719 113.929688 120.277344 124.964844 111.542969 129.035156 C 104.304688 132.40625 101.859375 131.191406 101.859375 131.191406 C 101.859375 131.191406 100.101562 133.902344 98.058594 136.25 C 96.269531 138.304688 93.78125 140.871094 93.78125 140.871094 C 93.78125 140.871094 105.855469 139.523438 114.929688 134.582031 C 122.863281 130.265625 136.808594 113.363281 127.199219 103.753906 Z M 127.199219 103.753906 "/><path style=" stroke:none;fill-rule:nonzero;fill:#734933;fill-opacity:1;" d="M 45.316406 71.40625 C 48.515625 71.40625 51.667969 70.171875 52.191406 67.484375 C 52.191406 67.425781 52.191406 67.289062 52.183594 67.230469 C 39.707031 58.519531 34.851562 38.417969 25.835938 38.417969 C 22.792969 38.417969 20.46875 41.210938 20.46875 45.015625 C 20.46875 53.429688 31.058594 71.40625 45.316406 71.40625 Z M 45.316406 71.40625 "/><path style=" stroke:none;fill-rule:nonzero;fill:#734933;fill-opacity:1;" d="M 53.34375 68.984375 C 53.296875 68.996094 53.253906 69.007812 53.210938 69.019531 Z M 53.34375 68.984375 "/><g clip-rule="nonzero" clip-path="url(#98cdf7b35f)"><path style=" stroke:none;fill-rule:nonzero;fill:#734933;fill-opacity:1;" d="M 46.015625 53.277344 C 50.601562 59.417969 53.890625 64.007812 53.890625 65.503906 C 53.890625 66.351562 54.003906 68.339844 53.34375 68.984375 C 57.769531 67.738281 60.550781 62.261719 60.917969 58.414062 C 62.304688 43.835938 48.105469 31.964844 34.527344 31.964844 C 30.652344 31.964844 26.324219 33.25 24.601562 36.835938 C 25.535156 36.730469 26.59375 36.636719 27.65625 36.636719 C 35.78125 36.628906 40.40625 45.769531 46.015625 53.277344 Z M 46.015625 53.277344 "/></g><path style=" stroke:none;fill-rule:nonzero;fill:#734933;fill-opacity:1;" d="M 72.652344 80.015625 C 72.644531 80.070312 72.644531 80.210938 72.644531 80.269531 C 73.167969 82.953125 76.320312 84.1875 79.519531 84.1875 C 93.777344 84.1875 104.367188 66.210938 104.367188 57.800781 C 104.367188 53.996094 102.042969 51.203125 99 51.203125 C 89.984375 51.203125 85.128906 71.304688 72.652344 80.019531 Z M 72.652344 80.015625 "/><path style=" stroke:none;fill-rule:nonzero;fill:#734933;fill-opacity:1;" d="M 71.492188 81.769531 C 70.832031 81.128906 70.945312 79.136719 70.945312 78.292969 C 70.945312 76.796875 74.234375 72.203125 78.820312 66.066406 C 84.429688 58.554688 89.054688 49.417969 97.179688 49.425781 C 98.238281 49.425781 99.300781 49.519531 100.234375 49.621094 C 98.507812 46.035156 94.179688 44.75 90.304688 44.75 C 76.726562 44.75 62.527344 56.621094 63.917969 71.203125 C 64.28125 75.046875 67.066406 80.523438 71.492188 81.769531 Z M 71.492188 81.769531 "/><path style=" stroke:none;fill-rule:nonzero;fill:#734933;fill-opacity:1;" d="M 71.625 81.804688 C 71.582031 81.792969 71.535156 81.78125 71.492188 81.769531 Z M 71.625 81.804688 "/><g style="fill:#734933;fill-opacity:1;"><g transform="translate(136.958298, 90.137717)"><path style="stroke:none" d="M 2.09375 -26.546875 C 2.09375 -30.828125 2.710938 -34.664062 3.953125 -38.0625 C 5.191406 -41.457031 6.890625 -44.332031 9.046875 -46.6875 C 11.210938 -49.050781 13.691406 -50.851562 16.484375 -52.09375 C 19.273438 -53.34375 22.238281 -53.96875 25.375 -53.96875 C 26.644531 -53.96875 27.726562 -53.921875 28.625 -53.828125 C 29.53125 -53.734375 30.382812 -53.628906 31.1875 -53.515625 C 32 -53.410156 32.863281 -53.3125 33.78125 -53.21875 C 34.695312 -53.125 35.773438 -53.078125 37.015625 -53.078125 C 37.484375 -53.078125 37.988281 -53.144531 38.53125 -53.28125 C 39.070312 -53.425781 39.46875 -53.65625 39.71875 -53.96875 L 40.1875 -53.96875 L 40.1875 -37.0625 L 39.71875 -37.0625 C 39.5625 -38.332031 39.257812 -39.6875 38.8125 -41.125 C 38.363281 -42.570312 37.78125 -43.992188 37.0625 -45.390625 C 36.351562 -46.796875 35.507812 -48.070312 34.53125 -49.21875 C 33.550781 -50.363281 32.453125 -51.273438 31.234375 -51.953125 C 30.023438 -52.640625 28.707031 -52.984375 27.28125 -52.984375 C 25.476562 -52.984375 23.957031 -52.242188 22.71875 -50.765625 C 21.476562 -49.296875 20.46875 -47.300781 19.6875 -44.78125 C 18.914062 -42.269531 18.347656 -39.4375 17.984375 -36.28125 C 17.628906 -33.132812 17.453125 -29.875 17.453125 -26.5 C 17.453125 -23.820312 17.5625 -21.195312 17.78125 -18.625 C 18 -16.050781 18.347656 -13.640625 18.828125 -11.390625 C 19.316406 -9.140625 19.945312 -7.160156 20.71875 -5.453125 C 21.5 -3.742188 22.429688 -2.40625 23.515625 -1.4375 C 24.597656 -0.476562 25.851562 0 27.28125 0 C 28.46875 0 29.570312 -0.367188 30.59375 -1.109375 C 31.613281 -1.859375 32.550781 -2.851562 33.40625 -4.09375 C 34.257812 -5.332031 35.023438 -6.695312 35.703125 -8.1875 C 36.390625 -9.6875 37 -11.179688 37.53125 -12.671875 C 38.0625 -14.160156 38.503906 -15.539062 38.859375 -16.8125 C 39.210938 -18.082031 39.5 -19.085938 39.71875 -19.828125 L 40.1875 -19.828125 L 40.1875 -2.9375 C 40.1875 -2.9375 39.90625 -2.738281 39.34375 -2.34375 C 38.78125 -1.957031 37.910156 -1.515625 36.734375 -1.015625 C 35.554688 -0.523438 34.023438 -0.0859375 32.140625 0.296875 C 30.265625 0.691406 28.007812 0.890625 25.375 0.890625 C 22.238281 0.890625 19.273438 0.269531 16.484375 -0.96875 C 13.691406 -2.21875 11.210938 -4.019531 9.046875 -6.375 C 6.890625 -8.738281 5.191406 -11.617188 3.953125 -15.015625 C 2.710938 -18.410156 2.09375 -22.253906 2.09375 -26.546875 Z M 2.09375 -26.546875 "/></g></g><g style="fill:#734933;fill-opacity:1;"><g transform="translate(179.225555, 90.137717)"><path style="stroke:none" d="M 0.46875 -49.96875 C 1.738281 -49.96875 3.171875 -50.101562 4.765625 -50.375 C 6.367188 -50.65625 7.976562 -51.003906 9.59375 -51.421875 C 11.207031 -51.847656 12.679688 -52.285156 14.015625 -52.734375 C 15.347656 -53.179688 16.375 -53.59375 17.09375 -53.96875 L 17.546875 -53.96875 L 17.546875 -6.515625 C 17.546875 -4.804688 17.78125 -3.441406 18.25 -2.421875 C 18.71875 -1.398438 19.492188 -0.75 20.578125 -0.46875 L 20.578125 0 L 0.5625 0 L 0.5625 -0.46875 C 1.644531 -0.75 2.414062 -1.398438 2.875 -2.421875 C 3.34375 -3.441406 3.578125 -4.804688 3.578125 -6.515625 L 3.578125 -43.34375 C 3.578125 -44.800781 3.398438 -45.976562 3.046875 -46.875 C 2.691406 -47.78125 2.273438 -48.441406 1.796875 -48.859375 C 1.316406 -49.285156 0.875 -49.5 0.46875 -49.5 Z M 0.46875 -49.96875 "/></g></g><g style="fill:#734933;fill-opacity:1;"><g transform="translate(200.266085, 90.137717)"><path style="stroke:none" d="M 0.46875 -33.890625 C 1.644531 -33.890625 2.984375 -34.019531 4.484375 -34.28125 C 5.992188 -34.550781 7.507812 -34.878906 9.03125 -35.265625 C 10.550781 -35.660156 11.96875 -36.070312 13.28125 -36.5 C 14.601562 -36.9375 15.6875 -37.3125 16.53125 -37.625 C 16.78125 -37.71875 16.96875 -37.8125 17.09375 -37.90625 L 17.546875 -37.90625 L 17.546875 -6.515625 C 17.546875 -4.804688 17.78125 -3.441406 18.25 -2.421875 C 18.71875 -1.398438 19.492188 -0.75 20.578125 -0.46875 L 20.578125 0 L 0.5625 0 L 0.5625 -0.46875 C 1.644531 -0.75 2.414062 -1.398438 2.875 -2.421875 C 3.34375 -3.441406 3.578125 -4.804688 3.578125 -6.515625 L 3.578125 -27.28125 C 3.578125 -28.738281 3.398438 -29.914062 3.046875 -30.8125 C 2.691406 -31.71875 2.273438 -32.378906 1.796875 -32.796875 C 1.316406 -33.222656 0.875 -33.4375 0.46875 -33.4375 Z M 1.953125 -47.21875 C 1.953125 -48.800781 2.335938 -50.234375 3.109375 -51.515625 C 3.890625 -52.804688 4.929688 -53.835938 6.234375 -54.609375 C 7.535156 -55.390625 8.960938 -55.78125 10.515625 -55.78125 C 12.097656 -55.78125 13.539062 -55.390625 14.84375 -54.609375 C 16.15625 -53.835938 17.195312 -52.804688 17.96875 -51.515625 C 18.75 -50.234375 19.140625 -48.800781 19.140625 -47.21875 C 19.140625 -45.632812 18.75 -44.1875 17.96875 -42.875 C 17.195312 -41.570312 16.15625 -40.53125 14.84375 -39.75 C 13.539062 -38.976562 12.097656 -38.59375 10.515625 -38.59375 C 8.960938 -38.59375 7.535156 -38.976562 6.234375 -39.75 C 4.929688 -40.53125 3.890625 -41.570312 3.109375 -42.875 C 2.335938 -44.1875 1.953125 -45.632812 1.953125 -47.21875 Z M 1.953125 -47.21875 "/></g></g><g style="fill:#734933;fill-opacity:1;"><g transform="translate(221.306614, 90.137717)"><path style="stroke:none" d="M 1.859375 -18.484375 C 1.859375 -21.148438 2.304688 -23.65625 3.203125 -26 C 4.109375 -28.34375 5.382812 -30.40625 7.03125 -32.1875 C 8.675781 -33.976562 10.625 -35.378906 12.875 -36.390625 C 15.125 -37.398438 17.597656 -37.90625 20.296875 -37.90625 C 22.191406 -37.90625 24.046875 -37.660156 25.859375 -37.171875 C 27.679688 -36.691406 29.320312 -35.960938 30.78125 -34.984375 C 32.238281 -34.015625 33.394531 -32.796875 34.25 -31.328125 C 35.101562 -29.867188 35.53125 -28.179688 35.53125 -26.265625 C 35.53125 -24.429688 35.117188 -22.835938 34.296875 -21.484375 C 33.472656 -20.140625 32.351562 -19.109375 30.9375 -18.390625 C 29.53125 -17.679688 27.925781 -17.328125 26.125 -17.328125 C 24.320312 -17.328125 22.773438 -17.679688 21.484375 -18.390625 C 20.203125 -19.109375 19.21875 -20.09375 18.53125 -21.34375 C 17.84375 -22.601562 17.5 -24.007812 17.5 -25.5625 C 17.5 -26.675781 17.625 -27.628906 17.875 -28.421875 C 18.125 -29.210938 18.421875 -29.925781 18.765625 -30.5625 C 19.109375 -31.195312 19.398438 -31.816406 19.640625 -32.421875 C 19.890625 -33.035156 20.015625 -33.695312 20.015625 -34.40625 C 20.015625 -35.09375 19.875 -35.675781 19.59375 -36.15625 C 19.320312 -36.632812 18.84375 -36.875 18.15625 -36.875 C 17.382812 -36.875 16.722656 -36.5625 16.171875 -35.9375 C 15.628906 -35.320312 15.1875 -34.53125 14.84375 -33.5625 C 14.507812 -32.601562 14.253906 -31.597656 14.078125 -30.546875 C 13.910156 -29.492188 13.828125 -28.515625 13.828125 -27.609375 C 13.828125 -23.734375 14.53125 -20.4375 15.9375 -17.71875 C 17.351562 -15 19.300781 -12.929688 21.78125 -11.515625 C 24.269531 -10.109375 27.113281 -9.40625 30.3125 -9.40625 C 31.363281 -9.40625 32.367188 -9.503906 33.328125 -9.703125 C 34.296875 -9.910156 35.257812 -10.210938 36.21875 -10.609375 C 36.21875 -8.992188 35.804688 -7.488281 34.984375 -6.09375 C 34.160156 -4.695312 33.039062 -3.472656 31.625 -2.421875 C 30.21875 -1.367188 28.625 -0.554688 26.84375 0.015625 C 25.0625 0.597656 23.207031 0.890625 21.28125 0.890625 C 18.582031 0.890625 16.0625 0.382812 13.71875 -0.625 C 11.375 -1.632812 9.316406 -3.023438 7.546875 -4.796875 C 5.773438 -6.566406 4.382812 -8.625 3.375 -10.96875 C 2.363281 -13.3125 1.859375 -15.816406 1.859375 -18.484375 Z M 1.859375 -18.484375 "/></g></g><g style="fill:#734933;fill-opacity:1;"><g transform="translate(259.384394, 90.137717)"><path style="stroke:none" d="M 3.578125 -43.34375 C 3.578125 -44.800781 3.398438 -45.976562 3.046875 -46.875 C 2.691406 -47.78125 2.273438 -48.441406 1.796875 -48.859375 C 1.316406 -49.285156 0.875 -49.5 0.46875 -49.5 L 0.46875 -49.96875 C 1.738281 -49.96875 3.171875 -50.101562 4.765625 -50.375 C 6.367188 -50.65625 7.976562 -51.003906 9.59375 -51.421875 C 11.207031 -51.847656 12.679688 -52.285156 14.015625 -52.734375 C 15.347656 -53.179688 16.375 -53.59375 17.09375 -53.96875 L 17.546875 -53.96875 L 17.546875 -18.53125 L 25.328125 -26.8125 C 26.597656 -28.1875 27.378906 -29.5625 27.671875 -30.9375 C 27.972656 -32.320312 27.734375 -33.53125 26.953125 -34.5625 C 26.179688 -35.601562 24.800781 -36.28125 22.8125 -36.59375 L 22.8125 -37.0625 L 42.75 -37.0625 L 42.75 -36.59375 C 41.75 -36.59375 40.476562 -36.328125 38.9375 -35.796875 C 37.40625 -35.273438 35.820312 -34.539062 34.1875 -33.59375 C 32.5625 -32.644531 31.097656 -31.566406 29.796875 -30.359375 C 29.484375 -30.078125 29.1875 -29.789062 28.90625 -29.5 C 28.632812 -29.207031 28.34375 -28.90625 28.03125 -28.59375 C 28.53125 -27.320312 29.132812 -25.773438 29.84375 -23.953125 C 30.5625 -22.140625 31.335938 -20.210938 32.171875 -18.171875 C 33.015625 -16.140625 33.835938 -14.132812 34.640625 -12.15625 C 35.816406 -9.332031 36.820312 -7.054688 37.65625 -5.328125 C 38.5 -3.609375 39.285156 -2.367188 40.015625 -1.609375 C 40.742188 -0.847656 41.5 -0.46875 42.28125 -0.46875 L 42.28125 0 L 21.75 0 L 21.75 -0.46875 C 22.457031 -0.84375 22.953125 -1.253906 23.234375 -1.703125 C 23.515625 -2.148438 23.59375 -2.773438 23.46875 -3.578125 C 23.34375 -4.390625 23.03125 -5.476562 22.53125 -6.84375 C 22.070312 -8.113281 21.390625 -9.617188 20.484375 -11.359375 C 19.585938 -13.097656 18.71875 -15.222656 17.875 -17.734375 C 17.84375 -17.890625 17.796875 -18.03125 17.734375 -18.15625 C 17.671875 -18.28125 17.609375 -18.40625 17.546875 -18.53125 L 17.546875 -6.515625 C 17.546875 -4.804688 17.78125 -3.441406 18.25 -2.421875 C 18.71875 -1.398438 19.492188 -0.75 20.578125 -0.46875 L 20.578125 0 L 0.5625 0 L 0.5625 -0.46875 C 1.644531 -0.75 2.414062 -1.398438 2.875 -2.421875 C 3.34375 -3.441406 3.578125 -4.804688 3.578125 -6.515625 Z M 3.578125 -43.34375 "/></g></g><g style="fill:#734933;fill-opacity:1;"><g transform="translate(302.117157, 90.137717)"><path style="stroke:none" d=""/></g></g><g style="fill:#734933;fill-opacity:1;"><g transform="translate(317.106208, 90.137717)"><path style="stroke:none" d="M 20.671875 0.890625 C 18.253906 0.890625 15.941406 0.457031 13.734375 -0.40625 C 11.535156 -1.28125 9.582031 -2.507812 7.875 -4.09375 C 6.164062 -5.675781 4.8125 -7.5625 3.8125 -9.75 C 2.820312 -11.9375 2.328125 -14.351562 2.328125 -17 C 2.328125 -18.976562 2.660156 -20.921875 3.328125 -22.828125 C 3.992188 -24.742188 4.992188 -26.40625 6.328125 -27.8125 C 7.660156 -29.226562 9.351562 -30.171875 11.40625 -30.640625 C 10.257812 -32.566406 9.335938 -34.410156 8.640625 -36.171875 C 7.941406 -37.941406 7.59375 -39.617188 7.59375 -41.203125 C 7.59375 -43.660156 8.210938 -45.847656 9.453125 -47.765625 C 10.691406 -49.691406 12.421875 -51.207031 14.640625 -52.3125 C 16.859375 -53.414062 19.425781 -53.96875 22.34375 -53.96875 C 24.519531 -53.96875 26.507812 -53.648438 28.3125 -53.015625 C 30.113281 -52.378906 31.554688 -51.414062 32.640625 -50.125 C 33.722656 -48.832031 34.265625 -47.210938 34.265625 -45.265625 C 34.265625 -43.554688 33.742188 -42.140625 32.703125 -41.015625 C 31.671875 -39.898438 30.207031 -39.34375 28.3125 -39.34375 C 27.28125 -39.34375 26.367188 -39.632812 25.578125 -40.21875 C 24.796875 -40.8125 24.191406 -41.570312 23.765625 -42.5 C 23.347656 -43.4375 23.15625 -44.414062 23.1875 -45.4375 C 23.25 -46.957031 23.800781 -48.226562 24.84375 -49.25 C 25.882812 -50.28125 27.210938 -50.796875 28.828125 -50.796875 C 28.484375 -51.390625 27.867188 -51.898438 26.984375 -52.328125 C 26.097656 -52.765625 25.035156 -52.984375 23.796875 -52.984375 C 23.109375 -52.984375 22.359375 -52.835938 21.546875 -52.546875 C 20.742188 -52.253906 20.054688 -51.769531 19.484375 -51.09375 C 18.910156 -50.425781 18.625 -49.519531 18.625 -48.375 C 18.625 -47.039062 19.082031 -45.507812 20 -43.78125 C 20.914062 -42.0625 22.125 -40.207031 23.625 -38.21875 C 25.132812 -36.238281 26.789062 -34.175781 28.59375 -32.03125 C 30.269531 -30.070312 32 -28.050781 33.78125 -25.96875 C 35.5625 -23.894531 37.320312 -21.878906 39.0625 -19.921875 C 40.800781 -17.972656 42.398438 -16.160156 43.859375 -14.484375 C 44.109375 -14.910156 44.234375 -15.375 44.234375 -15.875 C 44.234375 -17.707031 43.820312 -19.523438 43 -21.328125 C 42.175781 -23.128906 41.082031 -24.820312 39.71875 -26.40625 C 38.351562 -27.988281 36.835938 -29.390625 35.171875 -30.609375 C 33.515625 -31.835938 31.847656 -32.78125 30.171875 -33.4375 L 30.171875 -33.890625 L 38.140625 -33.890625 C 39.222656 -33.890625 40.226562 -33.476562 41.15625 -32.65625 C 42.09375 -31.832031 42.914062 -30.742188 43.625 -29.390625 C 44.34375 -28.046875 44.898438 -26.582031 45.296875 -25 C 45.703125 -23.414062 45.90625 -21.863281 45.90625 -20.34375 C 45.90625 -19.132812 45.796875 -17.96875 45.578125 -16.84375 C 45.367188 -15.726562 45.0625 -14.644531 44.65625 -13.59375 C 45.582031 -12.539062 46.425781 -11.585938 47.1875 -10.734375 C 47.945312 -9.878906 48.609375 -9.140625 49.171875 -8.515625 L 38.640625 0.890625 C 38.179688 0.296875 37.660156 -0.320312 37.078125 -0.96875 C 36.503906 -1.625 35.878906 -2.3125 35.203125 -3.03125 C 33.054688 -1.78125 30.738281 -0.8125 28.25 -0.125 C 25.769531 0.550781 23.242188 0.890625 20.671875 0.890625 Z M 11.921875 -29.796875 C 11.109375 -29.671875 10.734375 -29.113281 10.796875 -28.125 C 10.859375 -27.132812 11.253906 -25.863281 11.984375 -24.3125 C 12.710938 -22.757812 13.691406 -21.066406 14.921875 -19.234375 C 16.148438 -17.398438 17.554688 -15.582031 19.140625 -13.78125 C 20.722656 -11.976562 22.390625 -10.320312 24.140625 -8.8125 C 25.890625 -7.3125 27.648438 -6.101562 29.421875 -5.1875 C 31.191406 -4.269531 32.882812 -3.8125 34.5 -3.8125 C 32.820312 -5.613281 30.972656 -7.5625 28.953125 -9.65625 C 26.941406 -11.75 24.90625 -13.921875 22.84375 -16.171875 C 20.78125 -18.429688 18.800781 -20.707031 16.90625 -23 C 15.007812 -25.300781 13.347656 -27.566406 11.921875 -29.796875 Z M 11.921875 -29.796875 "/></g></g><g style="fill:#734933;fill-opacity:1;"><g transform="translate(368.602213, 90.137717)"><path style="stroke:none" d=""/></g></g><g style="fill:#734933;fill-opacity:1;"><g transform="translate(136.958298, 149.321728)"><path style="stroke:none" d="M 2.09375 -26.546875 C 2.09375 -30.828125 2.710938 -34.664062 3.953125 -38.0625 C 5.191406 -41.457031 6.890625 -44.332031 9.046875 -46.6875 C 11.210938 -49.050781 13.691406 -50.851562 16.484375 -52.09375 C 19.273438 -53.34375 22.238281 -53.96875 25.375 -53.96875 C 26.644531 -53.96875 27.726562 -53.921875 28.625 -53.828125 C 29.53125 -53.734375 30.382812 -53.628906 31.1875 -53.515625 C 32 -53.410156 32.863281 -53.3125 33.78125 -53.21875 C 34.695312 -53.125 35.773438 -53.078125 37.015625 -53.078125 C 37.484375 -53.078125 37.988281 -53.144531 38.53125 -53.28125 C 39.070312 -53.425781 39.46875 -53.65625 39.71875 -53.96875 L 40.1875 -53.96875 L 40.1875 -37.0625 L 39.71875 -37.0625 C 39.5625 -38.332031 39.257812 -39.6875 38.8125 -41.125 C 38.363281 -42.570312 37.78125 -43.992188 37.0625 -45.390625 C 36.351562 -46.796875 35.507812 -48.070312 34.53125 -49.21875 C 33.550781 -50.363281 32.453125 -51.273438 31.234375 -51.953125 C 30.023438 -52.640625 28.707031 -52.984375 27.28125 -52.984375 C 25.476562 -52.984375 23.957031 -52.242188 22.71875 -50.765625 C 21.476562 -49.296875 20.46875 -47.300781 19.6875 -44.78125 C 18.914062 -42.269531 18.347656 -39.4375 17.984375 -36.28125 C 17.628906 -33.132812 17.453125 -29.875 17.453125 -26.5 C 17.453125 -23.820312 17.5625 -21.195312 17.78125 -18.625 C 18 -16.050781 18.347656 -13.640625 18.828125 -11.390625 C 19.316406 -9.140625 19.945312 -7.160156 20.71875 -5.453125 C 21.5 -3.742188 22.429688 -2.40625 23.515625 -1.4375 C 24.597656 -0.476562 25.851562 0 27.28125 0 C 28.46875 0 29.570312 -0.367188 30.59375 -1.109375 C 31.613281 -1.859375 32.550781 -2.851562 33.40625 -4.09375 C 34.257812 -5.332031 35.023438 -6.695312 35.703125 -8.1875 C 36.390625 -9.6875 37 -11.179688 37.53125 -12.671875 C 38.0625 -14.160156 38.503906 -15.539062 38.859375 -16.8125 C 39.210938 -18.082031 39.5 -19.085938 39.71875 -19.828125 L 40.1875 -19.828125 L 40.1875 -2.9375 C 40.1875 -2.9375 39.90625 -2.738281 39.34375 -2.34375 C 38.78125 -1.957031 37.910156 -1.515625 36.734375 -1.015625 C 35.554688 -0.523438 34.023438 -0.0859375 32.140625 0.296875 C 30.265625 0.691406 28.007812 0.890625 25.375 0.890625 C 22.238281 0.890625 19.273438 0.269531 16.484375 -0.96875 C 13.691406 -2.21875 11.210938 -4.019531 9.046875 -6.375 C 6.890625 -8.738281 5.191406 -11.617188 3.953125 -15.015625 C 2.710938 -18.410156 2.09375 -22.253906 2.09375 -26.546875 Z M 2.09375 -26.546875 "/></g></g><g style="fill:#734933;fill-opacity:1;"><g transform="translate(179.225555, 149.321728)"><path style="stroke:none" d="M 20.53125 0.890625 C 17.957031 0.890625 15.546875 0.457031 13.296875 -0.40625 C 11.046875 -1.28125 9.054688 -2.546875 7.328125 -4.203125 C 5.609375 -5.867188 4.265625 -7.90625 3.296875 -10.3125 C 2.335938 -12.71875 1.859375 -15.441406 1.859375 -18.484375 C 1.859375 -21.523438 2.347656 -24.25 3.328125 -26.65625 C 4.304688 -29.0625 5.65625 -31.101562 7.375 -32.78125 C 9.101562 -34.457031 11.09375 -35.726562 13.34375 -36.59375 C 15.59375 -37.46875 18.003906 -37.90625 20.578125 -37.90625 C 23.148438 -37.90625 25.5625 -37.46875 27.8125 -36.59375 C 30.070312 -35.726562 32.0625 -34.457031 33.78125 -32.78125 C 35.5 -31.101562 36.835938 -29.0625 37.796875 -26.65625 C 38.765625 -24.25 39.25 -21.523438 39.25 -18.484375 C 39.25 -15.441406 38.757812 -12.71875 37.78125 -10.3125 C 36.800781 -7.90625 35.453125 -5.867188 33.734375 -4.203125 C 32.015625 -2.546875 30.03125 -1.28125 27.78125 -0.40625 C 25.53125 0.457031 23.113281 0.890625 20.53125 0.890625 Z M 17 -18.53125 C 17 -15.988281 17.003906 -13.597656 17.015625 -11.359375 C 17.035156 -9.128906 17.128906 -7.164062 17.296875 -5.46875 C 17.460938 -3.78125 17.800781 -2.460938 18.3125 -1.515625 C 18.832031 -0.566406 19.570312 -0.09375 20.53125 -0.09375 C 21.53125 -0.09375 22.273438 -0.566406 22.765625 -1.515625 C 23.265625 -2.460938 23.597656 -3.78125 23.765625 -5.46875 C 23.941406 -7.164062 24.035156 -9.128906 24.046875 -11.359375 C 24.066406 -13.597656 24.078125 -15.988281 24.078125 -18.53125 C 24.078125 -21.070312 24.066406 -23.453125 24.046875 -25.671875 C 24.035156 -27.898438 23.941406 -29.847656 23.765625 -31.515625 C 23.597656 -33.191406 23.265625 -34.503906 22.765625 -35.453125 C 22.273438 -36.398438 21.53125 -36.875 20.53125 -36.875 C 19.570312 -36.875 18.832031 -36.398438 18.3125 -35.453125 C 17.800781 -34.503906 17.460938 -33.191406 17.296875 -31.515625 C 17.128906 -29.847656 17.035156 -27.898438 17.015625 -25.671875 C 17.003906 -23.453125 17 -21.070312 17 -18.53125 Z M 17 -18.53125 "/></g></g><g style="fill:#734933;fill-opacity:1;"><g transform="translate(220.329075, 149.321728)"><path style="stroke:none" d="M -0.9375 -37.0625 L 3.21875 -37.0625 L 3.21875 -41.8125 C 3.21875 -44.195312 3.628906 -46.179688 4.453125 -47.765625 C 5.273438 -49.347656 6.328125 -50.585938 7.609375 -51.484375 C 8.898438 -52.390625 10.273438 -53.03125 11.734375 -53.40625 C 13.191406 -53.78125 14.539062 -53.96875 15.78125 -53.96875 C 17.800781 -53.96875 19.484375 -53.585938 20.828125 -52.828125 C 22.179688 -52.066406 23.195312 -51.09375 23.875 -49.90625 C 24.5625 -48.726562 24.90625 -47.503906 24.90625 -46.234375 C 24.90625 -44.148438 24.332031 -42.492188 23.1875 -41.265625 C 22.039062 -40.046875 20.503906 -39.4375 18.578125 -39.4375 C 16.710938 -39.4375 15.207031 -40.003906 14.0625 -41.140625 C 12.914062 -42.273438 12.34375 -43.664062 12.34375 -45.3125 C 12.34375 -46.050781 12.425781 -46.628906 12.59375 -47.046875 C 12.757812 -47.472656 12.921875 -47.832031 13.078125 -48.125 C 13.234375 -48.414062 13.3125 -48.734375 13.3125 -49.078125 C 13.3125 -49.640625 13.046875 -50.070312 12.515625 -50.375 C 11.992188 -50.6875 11.359375 -50.84375 10.609375 -50.84375 C 9.804688 -50.84375 8.960938 -50.648438 8.078125 -50.265625 C 7.191406 -49.878906 6.453125 -49.265625 5.859375 -48.421875 C 5.273438 -47.585938 4.984375 -46.503906 4.984375 -45.171875 C 4.984375 -43.953125 5.226562 -42.992188 5.71875 -42.296875 C 6.21875 -41.597656 6.863281 -41.054688 7.65625 -40.671875 C 8.445312 -40.285156 9.304688 -39.941406 10.234375 -39.640625 C 11.171875 -39.347656 12.085938 -39.015625 12.984375 -38.640625 C 13.890625 -38.273438 14.679688 -37.75 15.359375 -37.0625 L 22.109375 -37.0625 L 22.109375 -36.125 L 16.109375 -36.125 C 16.453125 -35.601562 16.71875 -34.984375 16.90625 -34.265625 C 17.09375 -33.554688 17.1875 -32.703125 17.1875 -31.703125 L 17.1875 -6.515625 C 17.1875 -4.804688 17.414062 -3.441406 17.875 -2.421875 C 18.34375 -1.398438 19.117188 -0.75 20.203125 -0.46875 L 20.203125 0 L 0.1875 0 L 0.1875 -0.46875 C 1.269531 -0.75 2.046875 -1.398438 2.515625 -2.421875 C 2.984375 -3.441406 3.21875 -4.804688 3.21875 -6.515625 L 3.21875 -36.125 L -0.9375 -36.125 Z M -0.9375 -37.0625 "/></g></g><g style="fill:#734933;fill-opacity:1;"><g transform="translate(240.81101, 149.321728)"><path style="stroke:none" d="M -0.9375 -37.0625 L 3.21875 -37.0625 L 3.21875 -41.8125 C 3.21875 -44.195312 3.628906 -46.179688 4.453125 -47.765625 C 5.273438 -49.347656 6.328125 -50.585938 7.609375 -51.484375 C 8.898438 -52.390625 10.273438 -53.03125 11.734375 -53.40625 C 13.191406 -53.78125 14.539062 -53.96875 15.78125 -53.96875 C 17.800781 -53.96875 19.484375 -53.585938 20.828125 -52.828125 C 22.179688 -52.066406 23.195312 -51.09375 23.875 -49.90625 C 24.5625 -48.726562 24.90625 -47.503906 24.90625 -46.234375 C 24.90625 -44.148438 24.332031 -42.492188 23.1875 -41.265625 C 22.039062 -40.046875 20.503906 -39.4375 18.578125 -39.4375 C 16.710938 -39.4375 15.207031 -40.003906 14.0625 -41.140625 C 12.914062 -42.273438 12.34375 -43.664062 12.34375 -45.3125 C 12.34375 -46.050781 12.425781 -46.628906 12.59375 -47.046875 C 12.757812 -47.472656 12.921875 -47.832031 13.078125 -48.125 C 13.234375 -48.414062 13.3125 -48.734375 13.3125 -49.078125 C 13.3125 -49.640625 13.046875 -50.070312 12.515625 -50.375 C 11.992188 -50.6875 11.359375 -50.84375 10.609375 -50.84375 C 9.804688 -50.84375 8.960938 -50.648438 8.078125 -50.265625 C 7.191406 -49.878906 6.453125 -49.265625 5.859375 -48.421875 C 5.273438 -47.585938 4.984375 -46.503906 4.984375 -45.171875 C 4.984375 -43.953125 5.226562 -42.992188 5.71875 -42.296875 C 6.21875 -41.597656 6.863281 -41.054688 7.65625 -40.671875 C 8.445312 -40.285156 9.304688 -39.941406 10.234375 -39.640625 C 11.171875 -39.347656 12.085938 -39.015625 12.984375 -38.640625 C 13.890625 -38.273438 14.679688 -37.75 15.359375 -37.0625 L 22.109375 -37.0625 L 22.109375 -36.125 L 16.109375 -36.125 C 16.453125 -35.601562 16.71875 -34.984375 16.90625 -34.265625 C 17.09375 -33.554688 17.1875 -32.703125 17.1875 -31.703125 L 17.1875 -6.515625 C 17.1875 -4.804688 17.414062 -3.441406 17.875 -2.421875 C 18.34375 -1.398438 19.117188 -0.75 20.203125 -0.46875 L 20.203125 0 L 0.1875 0 L 0.1875 -0.46875 C 1.269531 -0.75 2.046875 -1.398438 2.515625 -2.421875 C 2.984375 -3.441406 3.21875 -4.804688 3.21875 -6.515625 L 3.21875 -36.125 L -0.9375 -36.125 Z M -0.9375 -37.0625 "/></g></g><g style="fill:#734933;fill-opacity:1;"><g transform="translate(261.292946, 149.321728)"><path style="stroke:none" d="M 21.28125 0.890625 C 18.582031 0.890625 16.0625 0.382812 13.71875 -0.625 C 11.375 -1.632812 9.316406 -3.023438 7.546875 -4.796875 C 5.773438 -6.566406 4.382812 -8.625 3.375 -10.96875 C 2.363281 -13.3125 1.859375 -15.816406 1.859375 -18.484375 C 1.859375 -21.148438 2.304688 -23.65625 3.203125 -26 C 4.109375 -28.34375 5.382812 -30.398438 7.03125 -32.171875 C 8.675781 -33.941406 10.625 -35.332031 12.875 -36.34375 C 15.125 -37.351562 17.597656 -37.859375 20.296875 -37.859375 C 23.835938 -37.859375 26.832031 -37.3125 29.28125 -36.21875 C 31.738281 -35.132812 33.609375 -33.679688 34.890625 -31.859375 C 36.179688 -30.046875 36.828125 -28.039062 36.828125 -25.84375 C 36.828125 -22.769531 35.566406 -20.441406 33.046875 -18.859375 C 30.535156 -17.273438 26.472656 -16.484375 20.859375 -16.484375 L 16.671875 -16.484375 C 18.128906 -14.179688 20.03125 -12.425781 22.375 -11.21875 C 24.71875 -10.007812 27.363281 -9.40625 30.3125 -9.40625 C 31.363281 -9.40625 32.367188 -9.503906 33.328125 -9.703125 C 34.296875 -9.910156 35.257812 -10.210938 36.21875 -10.609375 C 36.21875 -8.992188 35.804688 -7.488281 34.984375 -6.09375 C 34.160156 -4.695312 33.039062 -3.472656 31.625 -2.421875 C 30.21875 -1.367188 28.625 -0.554688 26.84375 0.015625 C 25.0625 0.597656 23.207031 0.890625 21.28125 0.890625 Z M 16.15625 -17.375 L 16.4375 -17.375 C 17.988281 -17.375 19.289062 -17.679688 20.34375 -18.296875 C 21.40625 -18.921875 22.257812 -19.75 22.90625 -20.78125 C 23.5625 -21.820312 24.023438 -22.960938 24.296875 -24.203125 C 24.578125 -25.453125 24.71875 -26.679688 24.71875 -27.890625 C 24.71875 -28.878906 24.617188 -29.894531 24.421875 -30.9375 C 24.222656 -31.976562 23.90625 -32.941406 23.46875 -33.828125 C 23.03125 -34.710938 22.476562 -35.429688 21.8125 -35.984375 C 21.144531 -36.546875 20.363281 -36.828125 19.46875 -36.828125 C 18.40625 -36.828125 17.507812 -36.523438 16.78125 -35.921875 C 16.050781 -35.316406 15.46875 -34.53125 15.03125 -33.5625 C 14.601562 -32.601562 14.296875 -31.601562 14.109375 -30.5625 C 13.921875 -29.53125 13.828125 -28.5625 13.828125 -27.65625 C 13.828125 -25.601562 14.03125 -23.71875 14.4375 -22 C 14.84375 -20.28125 15.414062 -18.738281 16.15625 -17.375 Z M 16.15625 -17.375 "/></g></g><g style="fill:#734933;fill-opacity:1;"><g transform="translate(298.579373, 149.321728)"><path style="stroke:none" d="M 21.28125 0.890625 C 18.582031 0.890625 16.0625 0.382812 13.71875 -0.625 C 11.375 -1.632812 9.316406 -3.023438 7.546875 -4.796875 C 5.773438 -6.566406 4.382812 -8.625 3.375 -10.96875 C 2.363281 -13.3125 1.859375 -15.816406 1.859375 -18.484375 C 1.859375 -21.148438 2.304688 -23.65625 3.203125 -26 C 4.109375 -28.34375 5.382812 -30.398438 7.03125 -32.171875 C 8.675781 -33.941406 10.625 -35.332031 12.875 -36.34375 C 15.125 -37.351562 17.597656 -37.859375 20.296875 -37.859375 C 23.835938 -37.859375 26.832031 -37.3125 29.28125 -36.21875 C 31.738281 -35.132812 33.609375 -33.679688 34.890625 -31.859375 C 36.179688 -30.046875 36.828125 -28.039062 36.828125 -25.84375 C 36.828125 -22.769531 35.566406 -20.441406 33.046875 -18.859375 C 30.535156 -17.273438 26.472656 -16.484375 20.859375 -16.484375 L 16.671875 -16.484375 C 18.128906 -14.179688 20.03125 -12.425781 22.375 -11.21875 C 24.71875 -10.007812 27.363281 -9.40625 30.3125 -9.40625 C 31.363281 -9.40625 32.367188 -9.503906 33.328125 -9.703125 C 34.296875 -9.910156 35.257812 -10.210938 36.21875 -10.609375 C 36.21875 -8.992188 35.804688 -7.488281 34.984375 -6.09375 C 34.160156 -4.695312 33.039062 -3.472656 31.625 -2.421875 C 30.21875 -1.367188 28.625 -0.554688 26.84375 0.015625 C 25.0625 0.597656 23.207031 0.890625 21.28125 0.890625 Z M 16.15625 -17.375 L 16.4375 -17.375 C 17.988281 -17.375 19.289062 -17.679688 20.34375 -18.296875 C 21.40625 -18.921875 22.257812 -19.75 22.90625 -20.78125 C 23.5625 -21.820312 24.023438 -22.960938 24.296875 -24.203125 C 24.578125 -25.453125 24.71875 -26.679688 24.71875 -27.890625 C 24.71875 -28.878906 24.617188 -29.894531 24.421875 -30.9375 C 24.222656 -31.976562 23.90625 -32.941406 23.46875 -33.828125 C 23.03125 -34.710938 22.476562 -35.429688 21.8125 -35.984375 C 21.144531 -36.546875 20.363281 -36.828125 19.46875 -36.828125 C 18.40625 -36.828125 17.507812 -36.523438 16.78125 -35.921875 C 16.050781 -35.316406 15.46875 -34.53125 15.03125 -33.5625 C 14.601562 -32.601562 14.296875 -31.601562 14.109375 -30.5625 C 13.921875 -29.53125 13.828125 -28.5625 13.828125 -27.65625 C 13.828125 -25.601562 14.03125 -23.71875 14.4375 -22 C 14.84375 -20.28125 15.414062 -18.738281 16.15625 -17.375 Z M 16.15625 -17.375 "/></g></g></g></svg>